#!OML:ASF F:\VICON\USERDATA\INSTALL\Justin_Nancy\Justin_Nancy.ASF
:FULLY-SPECIFIED
:DEGREES
187
root 0.682361 17.4678 -15.9649 4.69781 -2.39814 -1.11428
lowerback 9.20126 -0.130401 0.977677
upperback 0.217674 0.0823006 3.0099
thorax -4.94308 0.0521405 2.57768
lowerneck -15.6047 -3.96327 -10.4061
upperneck 19.8385 -4.1538 5.71895
head 9.15661 -2.12298 3.16867
rclavicle 7.15625e-015 7.95139e-015
rhumerus -32.9353 -1.78471 -82.6196
rradius 51.1673
rwrist -2.46571
rhand -11.4681 13.2629
rfingers 7.12502
rthumb 14.5695 -16.2054
lclavicle 7.15625e-015 7.95139e-015
lhumerus -33.9837 4.86114 86.0949
lradius 45.4432
lwrist 1.99331
lhand -20.0065 17.5142
lfingers 7.12502
lthumb 6.33354 47.3995
rfemur -16.2419 2.84028 19.9299
rtibia 31.6022
rfoot -14.8718 -6.57094
rtoes 7.37389
lfemur -17.934 -1.05507 -16.4668
ltibia 33.726
lfoot -16.6893 6.50167
ltoes -3.13391
188
root 0.685441 17.4455 -15.992 4.75124 -2.42306 -1.23963
lowerback 9.63206 -0.0609189 1.13929
upperback 0.316067 0.201969 3.01457
thorax -5.08615 0.107441 2.47784
lowerneck -15.7902 -4.02224 -10.2924
upperneck 19.6628 -4.23502 5.70444
head 9.13381 -2.1484 3.1303
rclavicle 3.37934e-015 -1.51076e-014
rhumerus -32.6122 -1.57106 -82.7568
rradius 51.9183
rwrist -2.14532
rhand -12.0567 12.9295
rfingers 7.12502
rthumb 14.0023 -16.5789
lclavicle 3.37934e-015 -1.51076e-014
lhumerus -33.4407 4.42264 86.1793
lradius 45.8241
lwrist 1.92032
lhand -20.6143 16.1103
lfingers 7.12502
lthumb 5.74671 46.0124
rfemur -16.7726 2.75165 20.0585
rtibia 32.2947
rfoot -15.1299 -6.47751
rtoes 6.93813
lfemur -18.4447 -0.812335 -16.3201
ltibia 34.3409
lfoot -16.9268 6.33133
ltoes -3.18417
189
root 0.687997 17.4196 -16.0204 4.85963 -2.5279 -1.2237
lowerback 9.97607 0.000634164 1.13128
upperback 0.40205 0.290253 3.00994
thorax -5.19227 0.151022 2.46688
lowerneck -16.0132 -4.05814 -10.3112
upperneck 19.6344 -4.25964 5.72815
head 9.16804 -2.15477 3.136
rclavicle 1.09332e-014 3.65764e-014
rhumerus -32.3384 -1.26095 -82.8501
rradius 52.8086
rwrist -2.08082
rhand -12.1965 12.9615
rfingers 7.12502
rthumb 13.8676 -16.5562
lclavicle 1.09332e-014 3.65764e-014
lhumerus -33.2013 4.07401 86.2941
lradius 46.9747
lwrist 2.2052
lhand -20.3574 18.216
lfingers 7.12502
lthumb 5.99481 48.1112
rfemur -17.3891 2.69674 20.0202
rtibia 32.9935
rfoot -15.3783 -6.38056
rtoes 6.92304
lfemur -19.0429 -0.531802 -16.3427
ltibia 34.9652
lfoot -17.0725 6.27114
ltoes -3.44676
190
root 0.690155 17.3955 -16.0502 4.97995 -2.42337 -1.21349
lowerback 10.3311 -0.042444 1.13411
upperback 0.457599 0.243793 3.03738
thorax -5.33179 0.128494 2.50313
lowerneck -16.0955 -4.06699 -10.355
upperneck 19.5214 -4.25564 5.76388
head 9.14551 -2.14948 3.15413
rclavicle -9.14409e-015 3.02153e-014
rhumerus -32.055 -0.900117 -82.8947
rradius 53.658
rwrist -2.24984
rhand -12.0123 13.3548
rfingers 7.12502
rthumb 14.0452 -16.1506
lclavicle -9.14409e-015 3.02153e-014
lhumerus -33.1205 3.65658 86.4779
lradius 48.5271
lwrist 3.18286
lhand -19.3442 22.8104
lfingers 7.12502
lthumb 6.97286 52.6756
rfemur -18.0304 2.49044 20.0251
rtibia 33.7426
rfoot -15.6158 -6.35494
rtoes 7.17073
lfemur -19.6931 -0.398683 -16.3373
ltibia 35.5684
lfoot -17.1801 6.0852
ltoes -3.45119
191
root 0.69406 17.3753 -16.0803 5.14577 -2.31564 -1.20371
lowerback 10.6878 -0.063806 1.12692
upperback 0.513474 0.227046 3.09781
thorax -5.473 0.121327 2.57588
lowerneck -16.2414 -4.08881 -10.3625
upperneck 19.4059 -4.23703 5.64698
head 9.12874 -2.1498 3.11419
rclavicle -1.21259e-014 -2.38542e-014
rhumerus -31.6972 -0.52982 -82.8729
rradius 54.4176
rwrist -2.41997
rhand -12.0045 14.1845
rfingers 7.12502
rthumb 14.0527 -15.3204
lclavicle -1.21259e-014 -2.38542e-014
lhumerus -32.821 3.37881 86.6996
lradius 49.5359
lwrist 3.68396
lhand -19.4183 21.954
lfingers 7.12502
lthumb 6.9014 51.8215
rfemur -18.7743 2.28608 20.0267
rtibia 34.5442
rfoot -15.8514 -6.40029
rtoes 6.95702
lfemur -20.3302 -0.336741 -16.3317
ltibia 36.1556
lfoot -17.3221 5.90263
ltoes -3.43852
192
root 0.701154 17.3539 -16.1079 5.23925 -2.41604 -0.936594
lowerback 11.1491 0.021752 0.904408
upperback 0.581029 0.319958 3.01932
thorax -5.66453 0.172002 2.60788
lowerneck -16.3682 -4.13958 -10.2583
upperneck 19.2973 -4.28509 5.50682
head 9.11319 -2.17585 3.03923
rclavicle 6.55989e-015 6.36111e-015
rhumerus -31.3898 -0.438154 -82.8942
rradius 55.1606
rwrist -2.39288
rhand -11.998 15.4469
rfingers 7.12502
rthumb 14.0589 -14.0576
lclavicle 6.55989e-015 6.36111e-015
lhumerus -32.4045 2.94015 86.8179
lradius 50.2694
lwrist 4.05686
lhand -18.5424 27.2338
lfingers 7.12502
lthumb 7.74685 57.0719
rfemur -19.4665 2.12575 19.6947
rtibia 35.3666
rfoot -16.0391 -6.18872
rtoes 7.14691
lfemur -20.8451 -0.179216 -16.6559
ltibia 36.7573
lfoot -17.5623 5.85646
ltoes -3.53224
193
root 0.712061 17.3258 -16.1336 5.3312 -2.53046 -0.832725
lowerback 11.5918 0.0813416 0.94329
upperback 0.649081 0.409153 2.93645
thorax -5.84329 0.213898 2.48658
lowerneck -16.6444 -4.17592 -10.1374
upperneck 19.3882 -4.32353 5.43548
head 9.19366 -2.18936 2.98752
rclavicle 5.96354e-016 -1.74931e-014
rhumerus -31.1487 -0.293006 -82.9522
rradius 56.0174
rwrist -2.46931
rhand -12.023 15.442
rfingers 7.12502
rthumb 14.0349 -14.0641
lclavicle 5.96354e-016 -1.74931e-014
lhumerus -31.9398 2.5379 86.789
lradius 50.8864
lwrist 4.42586
lhand -20.2599 24.9047
lfingers 7.12502
lthumb 6.08891 54.7972
rfemur -20.1242 1.83851 19.5363
rtibia 36.1658
rfoot -16.2798 -5.89129
rtoes 6.84187
lfemur -21.4155 0.0250931 -16.8331
ltibia 37.427
lfoot -17.7886 5.83776
ltoes -3.83471
194
root 0.718485 17.2958 -16.1645 5.41655 -2.57112 -0.869904
lowerback 12.0106 0.0781957 0.978443
upperback 0.726201 0.422079 2.98913
thorax -5.99716 0.22004 2.52238
lowerneck -16.8078 -4.12965 -10.1308
upperneck 19.4028 -4.23509 5.39935
head 9.21998 -2.14918 2.98435
rclavicle -5.76476e-015 1.03368e-014
rhumerus -30.9417 0.0557867 -82.961
rradius 56.8931
rwrist -2.54335
rhand -11.8789 14.091
rfingers 7.12502
rthumb 14.1737 -15.4055
lclavicle -5.76476e-015 1.03368e-014
lhumerus -31.5731 2.41891 86.8209
lradius 51.5409
lwrist 4.65049
lhand -21.6272 22.4062
lfingers 7.12502
lthumb 4.76878 52.3325
rfemur -20.794 1.67106 19.569
rtibia 36.9829
rfoot -16.5758 -5.80981
rtoes 6.50427
lfemur -22.0393 0.190002 -16.8171
ltibia 38.1499
lfoot -17.9759 5.70864
ltoes -3.59237
195
root 0.723184 17.2688 -16.1977 5.47838 -2.62211 -1.02123
lowerback 12.5634 0.0868808 1.03648
upperback 0.795981 0.462612 3.10421
thorax -6.23498 0.240174 2.60775
lowerneck -16.7095 -4.12418 -10.1204
upperneck 19.1302 -4.21295 5.31322
head 9.10396 -2.14497 2.9536
rclavicle -2.78299e-015 1.11319e-014
rhumerus -30.6548 0.443282 -82.9609
rradius 57.6864
rwrist -2.75518
rhand -11.7006 12.3435
rfingers 7.12502
rthumb 14.3455 -17.1408
lclavicle -2.78299e-015 1.11319e-014
lhumerus -31.3157 2.41961 86.898
lradius 52.2904
lwrist 4.94596
lhand -21.6627 22.9289
lfingers 7.12502
lthumb 4.73447 52.856
rfemur -21.4313 1.6421 19.7293
rtibia 37.7839
rfoot -16.8656 -5.80437
rtoes 6.41777
lfemur -22.6342 0.360715 -16.6561
ltibia 38.926
lfoot -18.2659 5.54572
ltoes -3.29042
196
root 0.726748 17.2391 -16.2297 5.71032 -2.61869 -0.983369
lowerback 12.9602 0.135763 1.00376
upperback 0.868126 0.530852 3.08747
thorax -6.38306 0.274286 2.59835
lowerneck -16.6019 -4.17505 -10.1231
upperneck 18.7473 -4.30732 5.42339
head 8.96272 -2.17388 2.97704
rclavicle -3.97569e-016 -1.98785e-014
rhumerus -30.2259 0.571824 -82.9905
rradius 58.4493
rwrist -2.91441
rhand -11.5516 10.8918
rfingers 7.12502
rthumb 14.4891 -18.5823
lclavicle -3.97569e-016 -1.98785e-014
lhumerus -31.0028 2.08263 86.9106
lradius 53.1745
lwrist 4.99843
lhand -21.4683 23.8341
lfingers 7.12502
lthumb 4.92215 53.7569
rfemur -22.2553 1.55629 19.6829
rtibia 38.5841
rfoot -17.0723 -5.75928
rtoes 6.6434
lfemur -23.4352 0.587384 -16.7169
ltibia 39.6938
lfoot -18.4912 5.39865
ltoes -3.38082
197
root 0.735976 17.2072 -16.2622 5.91075 -2.57653 -0.903283
lowerback 13.3902 0.138796 1.01807
upperback 1.00374 0.542105 3.04705
thorax -6.47884 0.278365 2.54667
lowerneck -17.0927 -4.15518 -10.0589
upperneck 18.8609 -4.25388 5.45489
head 9.08489 -2.13491 2.98103
rclavicle 1.59028e-015 -1.66979e-014
rhumerus -29.6456 0.793259 -83.047
rradius 59.1987
rwrist -3.0471
rhand -11.7795 10.4664
rfingers 7.12502
rthumb 14.2695 -19.0234
lclavicle 1.59028e-015 -1.66979e-014
lhumerus -30.4868 1.77281 86.8792
lradius 53.9714
lwrist 5.07098
lhand -21.4116 24.259
lfingers 7.12502
lthumb 4.97689 54.1805
rfemur -23.035 1.22563 19.5783
rtibia 39.3782
rfoot -17.3099 -5.56572
rtoes 6.3953
lfemur -24.2112 0.745601 -16.8537
ltibia 40.4329
lfoot -18.7096 5.3195
ltoes -3.7798
